<?xml version="1.0" standalone="no"?>
<!DOCTYPE svg PUBLIC "-//W3C//DTD SVG 1.1//EN" "http://www.w3.org/Graphics/SVG/1.1/DTD/svg11.dtd" >
<svg xmlns="http://www.w3.org/2000/svg">
<metadata></metadata>
<defs>
<font id="zero_threesregular" horiz-adv-x="618" >
<font-face units-per-em="2048" ascent="1638" descent="-410" />
<missing-glyph horiz-adv-x="587" />
<glyph horiz-adv-x="2048" />
<glyph horiz-adv-x="2048" />
<glyph unicode="&#xd;" horiz-adv-x="587" />
<glyph unicode=" "  horiz-adv-x="587" />
<glyph unicode="&#x09;" horiz-adv-x="587" />
<glyph unicode="&#xa0;" horiz-adv-x="587" />
<glyph unicode="!" horiz-adv-x="512" d="M92 119q0 68 46 117t118 49q68 0 116 -48t48 -116q0 -66 -46 -116t-118 -50q-68 0 -116 49t-48 115zM137 842v708h238v-708l-21 -160l-39 -322h-118l-39 322q-20 160 -21 160z" />
<glyph unicode="&#x22;" horiz-adv-x="686" d="M51 1626h238l-60 -479h-147zM408 1626h239l-59 -479h-150z" />
<glyph unicode="#" horiz-adv-x="1335" d="M74 240v241h237v240h-237v242h237v239h238v-239h237v239h240v-239h238v-242h-238v-240h238v-241h-238v-240h-240v240h-237v-240h-238v240h-237zM549 481h237v240h-237v-240z" />
<glyph unicode="$" horiz-adv-x="1177" d="M76 905v242q0 94 66.5 166.5t170.5 72.5h209v240h119v-240h356v-239h-356v-242h207q102 0 170.5 -69.5t68.5 -169.5v-242q0 -102 -61 -168q-66 -72 -178 -72h-207v-239h-119v239h-387v240h387v242h-209q-88 0 -149.5 47t-81.5 127q-6 31 -6 65zM313 905h209v242h-209 v-242zM641 424h207v242h-207v-242z" />
<glyph unicode="%" horiz-adv-x="1376" d="M41 934q0 98 69.5 173t174.5 75q100 0 170.5 -73t70.5 -173q0 -98 -65 -170q-72 -76 -176 -76q-100 0 -172 72t-72 172zM203 362l749 820h224l-750 -820h-223zM203 936q0 -35 24.5 -58.5t57.5 -23.5q35 0 57.5 24.5t22.5 57.5t-23.5 57.5t-56.5 24.5q-35 0 -58.5 -24.5 t-23.5 -57.5zM852 606q0 100 68.5 174t173.5 74q100 0 170.5 -73t70.5 -171t-65 -172q-72 -76 -176 -76q-100 0 -171 73t-71 171zM1014 608q0 -33 23.5 -57.5t56.5 -24.5q35 0 57.5 24.5t22.5 57.5t-23.5 57.5t-56.5 24.5q-35 0 -57.5 -24.5t-22.5 -57.5z" />
<glyph unicode="&#x26;" horiz-adv-x="1419" d="M59 240v1071q0 104 62.5 171.5t177.5 67.5h594v-239h-594v-242h713v121h239v-121h119v-240h-119v-589q0 -100 -64.5 -170t-174.5 -70h-713q-104 0 -172 69.5t-68 170.5zM299 240h713v589h-713v-589z" />
<glyph unicode="'" horiz-adv-x="337" d="M6 1454q0 70 48 120t124 50q127 0 156 -119q6 -24 4 -51q0 -117 -80 -192q-59 -55 -192 -111l-37 47q90 47 104 113q-12 -2 -16 -2q-80 0 -105 106q-6 18 -6 39z" />
<glyph unicode="(" horiz-adv-x="466" d="M29 623q0 422 176 958h239q-178 -537 -178 -958q0 -289 74 -600q38 -172 104 -365h-239q-63 193 -105 365q-72 311 -71 600z" />
<glyph unicode=")" horiz-adv-x="614" d="M86 -342q176 535 176 958q0 289 -72 598q-41 172 -104 367h238q65 -195 104 -367q74 -309 74 -598q0 -424 -178 -958h-238z" />
<glyph unicode="*" horiz-adv-x="677" d="M74 764l71 123l138 -80v166h143v-168l141 82l72 -123l-139 -82l137 -82l-70 -125l-141 82v-160h-143v158l-136 -80l-71 125l139 82z" />
<glyph unicode="+" horiz-adv-x="827" d="M63 707v239h238v242h238v-242h237v-239h-237v-242h-238v242h-238z" />
<glyph unicode="," horiz-adv-x="448" d="M57 117q0 68 48.5 118t123.5 50q127 0 156 -119q4 -22 4 -51q0 -115 -80 -193q-59 -55 -192 -110l-37 47q88 47 104 112h-16q-82 0 -107 105q-4 20 -4 41z" />
<glyph unicode="-" horiz-adv-x="827" d="M63 707v239h715v-239h-715z" />
<glyph unicode="." horiz-adv-x="438" d="M55 119q0 68 46 117t118 49q68 0 116 -48t48 -116q0 -66 -47 -116t-117 -50q-68 0 -116 49t-48 115z" />
<glyph unicode="/" horiz-adv-x="1019" d="M57 0l777 1550h186l-778 -1550h-185z" />
<glyph unicode="0" horiz-adv-x="1368" d="M84 240v1071q0 94 67.5 166.5t170.5 72.5h714q100 0 169 -70.5t69 -168.5v-1071q0 -240 -238 -240h-714q-190 0 -230 160q-8 37 -8 80zM322 240h714v1071h-714v-1071z" />
<glyph unicode="1" horiz-adv-x="856" d="M68 0v240h237v1071h-237v239h475v-1310h239v-240h-714z" />
<glyph unicode="2" horiz-adv-x="1370" d="M84 0v707q0 100 64.5 169.5t173.5 69.5h714v365h-952v239h952q190 0 230 -170q8 -33 8 -69v-357q0 -100 -62 -172q-68 -76 -176 -75h-714v-467h952v-240h-1190z" />
<glyph unicode="3" horiz-adv-x="1374" d="M92 0v240h952v467h-911v239h911v365h-952v239h952q100 0 169 -70.5t69 -168.5v-303q0 -127 -115 -191q115 -66 115 -172v-405q0 -240 -238 -240h-952z" />
<glyph unicode="4" horiz-adv-x="1452" d="M55 481v1069h238v-829h715v829h237v-829h150v-240h-150v-481h-237v481h-953z" />
<glyph unicode="5" horiz-adv-x="1411" d="M102 0v240h953v467h-953v843h1190v-239h-952v-365h715q96 0 166.5 -71.5t70.5 -167.5v-467q0 -106 -57 -170q-63 -70 -180 -70h-953z" />
<glyph unicode="6" horiz-adv-x="1411" d="M102 240v1071q0 96 65.5 167.5t172.5 71.5h891v-239h-891v-365h715q96 0 166.5 -71.5t70.5 -167.5v-467q0 -106 -57 -170q-63 -70 -180 -70h-715q-102 0 -170 68.5t-68 171.5zM340 240h715v467h-715v-467z" />
<glyph unicode="7" horiz-adv-x="1353" d="M76 1311v239h1190v-239l-801 -1311h-287l819 1311h-921z" />
<glyph unicode="8" horiz-adv-x="1374" d="M92 240v405q0 106 115 172q-115 63 -115 191v303q0 94 66.5 166.5t171.5 72.5h714q100 0 169 -70.5t69 -168.5v-303q0 -127 -115 -191q115 -66 115 -172v-405q0 -240 -238 -240h-714q-193 0 -230 160q-8 37 -8 80zM330 240h714v467h-714v-467zM330 946h714v365h-714v-365 z" />
<glyph unicode="9" horiz-adv-x="1363" d="M86 0v240h952v467h-714q-96 0 -167 71.5t-71 167.5v365q0 106 60.5 172.5t177.5 66.5h714q102 0 170 -68.5t68 -170.5v-1071q0 -98 -64 -166q-68 -74 -174 -74h-952zM324 946h714v365h-714v-365z" />
<glyph unicode=":" horiz-adv-x="434" d="M57 119q0 68 46.5 117t117.5 49q68 0 116 -48t48 -116q0 -66 -47 -116t-117 -50q-68 0 -116 49t-48 115zM57 840q0 68 46.5 118t117.5 50q68 0 116 -49t48 -117q0 -66 -47 -116t-117 -50q-68 0 -116 49t-48 115z" />
<glyph unicode=";" horiz-adv-x="436" d="M57 117q0 68 48.5 118t121.5 50q129 0 156 -119q6 -22 6 -51q0 -115 -82 -193q-59 -55 -192 -110l-37 47q90 47 104 112h-14q-82 0 -107 105q-4 20 -4 41zM59 840q0 68 46.5 118t117.5 50q68 0 116 -49t48 -117q0 -66 -47 -116t-117 -50q-68 0 -116 49t-48 115z" />
<glyph unicode="&#x3c;" horiz-adv-x="817" d="M70 817l503 510l168 -170l-335 -340l335 -340l-168 -170z" />
<glyph unicode="=" horiz-adv-x="860" d="M74 485v242h714v-242h-714zM74 885v241h714v-241h-714z" />
<glyph unicode="&#x3e;" horiz-adv-x="827" d="M72 477l336 340l-336 340l168 170l503 -510l-503 -510z" />
<glyph unicode="?" horiz-adv-x="1042" d="M59 1311v239h684q190 0 232 -170q8 -33 8 -69v-234q0 -100 -64.5 -174t-175.5 -74h-266v-409h-239v409q0 100 64.5 170t174.5 70h266v242h-684zM164 119q0 68 46 117t118 49q68 0 116 -48t48 -116q0 -66 -46.5 -116t-117.5 -50q-68 0 -116 49t-48 115z" />
<glyph unicode="@" horiz-adv-x="882" d="M109 219v850h659v-606h-481v360h303v-196h-125v82h-53v-129h229v372h-408v-618h535v-115h-659z" />
<glyph unicode="A" horiz-adv-x="1357" d="M80 0v1311q0 100 64.5 169.5t172.5 69.5h715q86 0 162 -76.5t76 -162.5v-1311h-238v707h-715v-707h-237zM317 946h715v365h-715v-365z" />
<glyph unicode="B" horiz-adv-x="1366" d="M82 0v1550h952q104 0 171 -68.5t67 -170.5v-334q0 -166 -122 -166h-3q98 -16 119 -104q6 -25 6 -62v-405q-4 -119 -47 -172q-55 -68 -191 -68h-952zM322 240h712v467h-712v-467zM322 946h712v365h-712v-365z" />
<glyph unicode="C" horiz-adv-x="1331" d="M78 240v1071q0 94 66.5 166.5t170.5 72.5h912v-239h-912v-1071h912v-240h-912q-193 0 -229 160q-8 37 -8 80z" />
<glyph unicode="D" horiz-adv-x="1374" d="M92 0v1550h952q100 0 169 -70.5t69 -168.5v-1071q0 -240 -238 -240h-952zM330 240h714v1071h-714v-1071z" />
<glyph unicode="E" horiz-adv-x="1181" d="M111 0v1550h952v-239h-713v-365h631v-239h-631v-467h713v-240h-952z" />
<glyph unicode="F" horiz-adv-x="1181" d="M111 0v1550h952v-239h-713v-365h631v-239h-631v-707h-239z" />
<glyph unicode="G" horiz-adv-x="1411" d="M102 240v1071q0 94 68 166.5t170 72.5h913v-239h-913v-1071h715v467h-475v239h712v-946h-952q-190 0 -229 160q-8 37 -9 80z" />
<glyph unicode="H" horiz-adv-x="1355" d="M104 0v1550h238v-604h674v604h237v-1550h-237v707h-674v-707h-238z" />
<glyph unicode="I" horiz-adv-x="466" d="M111 0v1550h237v-1550h-237z" />
<glyph unicode="J" horiz-adv-x="1419" d="M111 240v241h239v-241h713v1310h237v-1550h-950q-193 0 -231 164q-8 35 -8 76z" />
<glyph unicode="K" horiz-adv-x="1323" d="M70 0v1550h239v-602l637 602h316l-824 -766l824 -784h-316l-637 623v-623h-239z" />
<glyph unicode="L" horiz-adv-x="1101" d="M76 0v1550h239v-1310h713v-240h-952z" />
<glyph unicode="M" horiz-adv-x="1658" d="M113 0v1550h217l495 -1310l498 1310h217v-1550h-237v950l-349 -950h-256l-348 950v-950h-237z" />
<glyph unicode="N" horiz-adv-x="1419" d="M113 0v1550h127l825 -1069v1069h238v-1550h-129l-824 1069v-1069h-237z" />
<glyph unicode="O" horiz-adv-x="1349" d="M84 240v1071q0 94 67.5 166.5t170.5 72.5h714q100 0 169 -70.5t69 -168.5v-1071q0 -240 -238 -240h-714q-190 0 -230 160q-8 37 -8 80zM322 240h714v1071h-714v-1071z" />
<glyph unicode="P" horiz-adv-x="1306" d="M74 0v1550h932q98 0 167.5 -70.5t69.5 -168.5v-365q0 -239 -235 -239h-2h-695v-707h-237zM311 946h695v365h-695v-365z" />
<glyph unicode="Q" horiz-adv-x="1349" d="M84 240v1071q0 94 67.5 166.5t170.5 72.5h714q100 0 169 -70.5t69 -168.5v-1071q0 -240 -238 -240h-237v-240h-238v240h-239q-190 0 -230 160q-8 37 -8 80zM322 240h714v1071h-714v-1071z" />
<glyph unicode="R" horiz-adv-x="1337" d="M78 0v1550h911q100 0 169 -70.5t69 -168.5v-365q0 -239 -236 -239h-2h-354l633 -707h-275l-620 707h-58v-707h-237zM315 946h674v365h-674v-365z" />
<glyph unicode="S" horiz-adv-x="1310" d="M111 946v365q0 94 67.5 166.5t171.5 72.5h789v-239h-789v-365h633q102 0 170 -69.5t68 -169.5v-467q0 -102 -62 -168q-66 -72 -176 -72h-852v240h852v467h-633q-90 0 -151.5 47t-79.5 127q-8 31 -8 65z" />
<glyph unicode="T" horiz-adv-x="1333" d="M68 1311v239h1189v-239h-477v-1311h-237v1311h-475z" />
<glyph unicode="U" horiz-adv-x="1419" d="M111 240v1310h239v-1310h713v1310h237v-1310q0 -100 -63 -170t-174 -70h-713q-106 0 -172.5 68.5t-66.5 171.5z" />
<glyph unicode="V" horiz-adv-x="1310" d="M66 1550h247l349 -1241l346 1241h247l-475 -1550h-239z" />
<glyph unicode="W" horiz-adv-x="2009" d="M51 1550h248l346 -1241l268 1241h179l268 -1241l348 1241h246l-475 -1550h-238l-237 1008l-240 -1008h-238z" />
<glyph unicode="X" horiz-adv-x="1570" d="M72 0l571 784l-571 766h286l428 -606l428 606h285l-569 -766l569 -784h-285l-428 627l-428 -627h-286z" />
<glyph unicode="Y" horiz-adv-x="1347" d="M78 1550h248l348 -704l348 704h246l-475 -905v-645h-238v645z" />
<glyph unicode="Z" horiz-adv-x="1357" d="M86 0v121l834 1190h-834v239h1190v-120l-836 -1190h836v-240h-1190z" />
<glyph unicode="[" horiz-adv-x="608" d="M74 -240v1825h477v-239h-240v-1346h240v-240h-477z" />
<glyph unicode="\" horiz-adv-x="1054" d="M35 1571h186l799 -1571h-186z" />
<glyph unicode="]" horiz-adv-x="712" d="M119 0h237v1346h-237v239h475v-1825h-475v240z" />
<glyph unicode="_" horiz-adv-x="1189" d="M0 -158h1190v-241h-1190v241z" />
<glyph unicode="`" horiz-adv-x="1032" d="M373 1534h221l166 -225h-168z" />
<glyph unicode="a" horiz-adv-x="1415" d="M109 240v241q0 100 64.5 170t172.5 70h715v242h-952v239h952q104 0 170.5 -68.5t66.5 -170.5v-963h-952q-102 0 -169.5 68.5t-67.5 171.5zM346 240h715v241h-715v-241z" />
<glyph unicode="b" horiz-adv-x="1404" d="M100 0v1548h238v-346h713q98 0 168.5 -68.5t70.5 -164.5v-729q0 -102 -61 -168q-66 -72 -178 -72h-951zM338 240h713v723h-713v-723z" />
<glyph unicode="c" horiz-adv-x="1331" d="M78 240v723q0 94 66.5 166.5t170.5 72.5h912v-239h-912v-723h912v-240h-912q-193 0 -229 160q-8 37 -8 80z" />
<glyph unicode="d" horiz-adv-x="1374" d="M94 240v729q0 92 68.5 162.5t169.5 70.5h694l2 346h238l-2 -1548h-932q-88 0 -149.5 47t-80.5 129q-8 31 -8 64zM332 240h694v723h-694v-723z" />
<glyph unicode="e" horiz-adv-x="1415" d="M109 240v723q0 104 61 171.5t176 67.5h715q104 0 170.5 -68.5t66.5 -170.5v-242q0 -100 -61 -168q-68 -72 -176 -72h-715v-241h891v-240h-891q-104 0 -170.5 68.5t-66.5 171.5zM346 721h715v242h-715v-242z" />
<glyph unicode="f" horiz-adv-x="649" d="M57 963v239h105v105q0 102 63.5 171.5t173.5 69.5h215v-241h-215v-105h150v-239h-150v-963h-237v963h-105z" />
<glyph unicode="g" horiz-adv-x="1423" d="M117 233v730q0 100 63.5 169.5t173.5 69.5h953v-1360q0 -241 -236 -241h-2h-549v241h549v158h-715q-96 0 -166.5 68.5t-70.5 164.5zM354 240h715v723h-715v-723z" />
<glyph unicode="h" horiz-adv-x="1415" d="M109 0v1548h237v-346h715q190 0 229 -164q8 -35 8 -75v-963h-237v963h-715v-963h-237z" />
<glyph unicode="i" horiz-adv-x="454" d="M119 0v1202h237v-1202h-237z" />
<glyph unicode="j" horiz-adv-x="694" d="M102 -158h238v1360h238v-1360q0 -100 -64 -168q-65 -73 -171 -73h-3h-238v241z" />
<glyph unicode="k" horiz-adv-x="1323" d="M70 0v1202h239v-438l596 438h357l-865 -602l865 -600h-357l-596 438v-438h-239z" />
<glyph unicode="l" horiz-adv-x="475" d="M119 0v1548h237v-1548h-237z" />
<glyph unicode="m" horiz-adv-x="1890" d="M109 0v1202h1427q193 0 231 -164q8 -35 9 -75v-963h-240v963h-475v-963h-238v963h-477v-963h-237z" />
<glyph unicode="n" horiz-adv-x="1327" d="M109 0v1202h890q193 0 232 -164q6 -35 6 -75v-963h-238v963h-653v-963h-237z" />
<glyph unicode="o" horiz-adv-x="1349" d="M84 240v723q0 94 67.5 166.5t170.5 72.5h714q100 0 169 -70.5t69 -168.5v-723q0 -240 -238 -240h-714q-190 0 -230 160q-8 37 -8 80zM322 240h714v723h-714v-723z" />
<glyph unicode="p" horiz-adv-x="1415" d="M109 -399v1601h952q88 0 149.5 -47t81.5 -129q6 -31 6 -63v-730q0 -92 -68.5 -162.5t-168.5 -70.5h-715v-399h-237zM346 240h715v723h-715v-723z" />
<glyph unicode="q" horiz-adv-x="1423" d="M117 233v730q0 100 63.5 169.5t173.5 69.5h953v-1601h-238v399h-715q-96 0 -166.5 68.5t-70.5 164.5zM354 240h715v723h-715v-723z" />
<glyph unicode="r" horiz-adv-x="1261" d="M98 0v1202h850q193 0 232 -164q8 -35 8 -75v-242h-240v242h-612v-963h-238z" />
<glyph unicode="s" horiz-adv-x="1310" d="M111 721v242q0 94 67.5 166.5t171.5 72.5h789v-239h-789v-242h633q102 0 170 -69.5t68 -170.5v-241q0 -102 -62 -168q-66 -72 -176 -72h-852v240h852v241h-633q-90 0 -151.5 47t-79.5 127q-8 31 -8 66z" />
<glyph unicode="t" horiz-adv-x="626" d="M68 240v1304h239v-342h238v-239h-238v-723h238v-240h-238q-104 0 -171.5 68.5t-67.5 171.5z" />
<glyph unicode="u" horiz-adv-x="1419" d="M111 240v962h239v-962h713v962h237v-962q0 -100 -63 -170t-174 -70h-713q-106 0 -172.5 68.5t-66.5 171.5z" />
<glyph unicode="v" horiz-adv-x="1310" d="M66 1202h247l349 -934l346 934h247l-475 -1202h-239z" />
<glyph unicode="w" horiz-adv-x="2009" d="M51 1202h246l348 -954l268 954h179l268 -954l348 954h246l-475 -1202h-238l-237 721l-240 -721h-238z" />
<glyph unicode="x" horiz-adv-x="1570" d="M72 0l571 600l-571 602h286l428 -442l428 442h285l-569 -602l569 -600h-285l-428 442l-428 -442h-286z" />
<glyph unicode="y" horiz-adv-x="1296" d="M53 1202h246l348 -954l348 954h248l-655 -1683h-238l178 481z" />
<glyph unicode="z" horiz-adv-x="1357" d="M86 0v121l793 842h-793v239h1190v-121l-795 -841h795v-240h-1190z" />
<glyph unicode="|" horiz-adv-x="434" d="M111 -326v1835h206v-1835h-206z" />
<glyph unicode="&#xa1;" horiz-adv-x="563" d="M92 643q0 -68 46 -117t118 -49q68 0 116 48t48 116q0 66 -46 116t-118 50q-68 0 -116 -49t-48 -115zM137 -80v-708h238v708l-21 160l-39 321h-118l-39 -321q-20 -160 -21 -160z" />
<glyph unicode="&#xa3;" />
<glyph unicode="&#xa4;" />
<glyph unicode="&#xa7;" />
<glyph unicode="&#xa8;" horiz-adv-x="1177" d="M430 1430q0 39 32 64.5t75 25.5q41 0 73.5 -26t32.5 -67q0 -37 -31.5 -62.5t-74.5 -25.5q-41 0 -74 25t-33 66zM774 1430q0 37 32 63.5t75 26.5t74.5 -26t31.5 -67q0 -37 -30.5 -62.5t-75.5 -25.5q-41 0 -74 25t-33 66z" />
<glyph unicode="&#xaa;" />
<glyph unicode="&#xab;" />
<glyph unicode="&#xac;" />
<glyph unicode="&#xad;" horiz-adv-x="827" d="M63 707v239h715v-239h-715z" />
<glyph unicode="&#xaf;" />
<glyph unicode="&#xb1;" />
<glyph unicode="&#xb2;" />
<glyph unicode="&#xb3;" />
<glyph unicode="&#xb4;" horiz-adv-x="1032" d="M567 1309l166 225h221l-219 -225h-168z" />
<glyph unicode="&#xb5;" />
<glyph unicode="&#xb7;" />
<glyph unicode="&#xb8;" horiz-adv-x="1042" d="M375 -299q33 -4 47 -4q47 0 84 32.5t37 75.5q0 76 -84 76q-10 0 -21 -2l109 178h59l-49 -80q125 -28 125 -147q0 -76 -63.5 -127t-149.5 -51q-41 0 -94 6v43z" />
<glyph unicode="&#xb9;" />
<glyph unicode="&#xbb;" />
<glyph unicode="&#xbc;" />
<glyph unicode="&#xbd;" />
<glyph unicode="&#xbe;" />
<glyph unicode="&#xbf;" horiz-adv-x="1146" d="M45 -307q0 100 63.5 174t174.5 74h268v409h237v-409q0 -100 -64.5 -170t-172.5 -70h-268v-242h684v-239h-684q-190 0 -232 170q-6 33 -6 69v234zM535 649q0 66 47 116t116 50q68 0 116 -49t48 -115q0 -68 -46 -117t-118 -49q-68 0 -115.5 48t-47.5 116z" />
<glyph unicode="&#xc0;" horiz-adv-x="1492" d="M80 0v1311q0 100 64.5 169.5t172.5 69.5h715q86 0 162 -76.5t76 -162.5v-1311h-238v707h-715v-707h-237zM317 946h715v365h-715v-365zM393 1800h221l166 -225h-168z" />
<glyph unicode="&#xc1;" horiz-adv-x="1492" d="M80 0v1311q0 100 64.5 169.5t172.5 69.5h715q86 0 162 -76.5t76 -162.5v-1311h-238v707h-715v-707h-237zM317 946h715v365h-715v-365zM547 1575l166 225h221l-219 -225h-168z" />
<glyph unicode="&#xc2;" horiz-adv-x="1492" d="M80 0v1311q0 100 64.5 169.5t172.5 69.5h715q86 0 162 -76.5t76 -162.5v-1311h-238v707h-715v-707h-237zM317 946h715v365h-715v-365zM403 1585l148 209h262l148 -209h-170l-111 133l-107 -133h-170z" />
<glyph unicode="&#xc3;" horiz-adv-x="1492" d="M80 0v1311q0 100 64.5 169.5t172.5 69.5h715q86 0 162 -76.5t76 -162.5v-1311h-238v707h-715v-707h-237zM317 946h715v365h-715v-365zM362 1597q6 203 183 203q68 0 170 -54t143 -54q72 0 92 108h31q0 -84 -43 -141q-51 -63 -141 -64q-68 0 -172.5 55.5t-141.5 55.5 q-45 0 -65 -37q-12 -18 -25 -72h-31z" />
<glyph unicode="&#xc4;" horiz-adv-x="1492" d="M80 0v1311q0 100 64.5 169.5t172.5 69.5h715q86 0 162 -76.5t76 -162.5v-1311h-238v707h-715v-707h-237zM317 946h715v365h-715v-365zM410 1696q0 39 31.5 64.5t74.5 25.5q41 0 74 -25.5t33 -66.5q0 -37 -31 -62.5t-76 -25.5q-41 0 -73.5 24.5t-32.5 65.5zM754 1696 q0 37 31.5 63.5t76.5 26.5q41 0 73 -25.5t32 -66.5q0 -37 -31 -62.5t-74 -25.5t-75.5 24.5t-32.5 65.5z" />
<glyph unicode="&#xc5;" horiz-adv-x="1492" d="M80 0v1311q0 100 64.5 169.5t172.5 69.5h715q86 0 162 -76.5t76 -162.5v-1311h-238v707h-715v-707h-237zM317 946h715v365h-715v-365zM500 1688q0 72 54 124t134 52q78 0 134.5 -51t56.5 -125t-55.5 -126.5t-135.5 -52.5q-76 0 -132 51.5t-56 127.5zM567 1688 q0 -49 36 -81t85 -32q51 0 86 33.5t35 79.5q0 47 -36 79.5t-85 32.5q-51 0 -86 -33.5t-35 -78.5z" />
<glyph unicode="&#xc6;" horiz-adv-x="1517" d="M51 0v1311q0 100 64.5 169.5t175.5 69.5h1161v-239h-512v-242h512v-240h-512v-589h512v-240h-752v829h-409v-829h-240zM291 1069h409v242h-409v-242z" />
<glyph unicode="&#xc7;" horiz-adv-x="1290" d="M72 240v1071q0 94 66.5 166.5t170.5 72.5h912v-239h-912v-1071h912v-240h-912q-193 0 -229 160q-8 37 -8 80zM537 -299q33 -4 49 -4q47 0 83 32.5t36 75.5q0 76 -84 76q-10 0 -21 -2l111 178h59l-51 -80q125 -28 125 -147q0 -76 -63.5 -127t-149.5 -51q-39 0 -94 6v43z " />
<glyph unicode="&#xc8;" horiz-adv-x="1300" d="M111 0v1550h952v-239h-713v-365h631v-239h-631v-467h713v-240h-952zM373 1800h221l166 -225h-168z" />
<glyph unicode="&#xc9;" horiz-adv-x="1300" d="M111 0v1550h952v-239h-713v-365h631v-239h-631v-467h713v-240h-952zM487 1575l166 225h219l-219 -225h-166z" />
<glyph unicode="&#xca;" horiz-adv-x="1300" d="M111 0v1550h952v-239h-713v-365h631v-239h-631v-467h713v-240h-952zM342 1585l147 209h263l147 -209h-170l-111 133l-106 -133h-170z" />
<glyph unicode="&#xcb;" horiz-adv-x="1300" d="M111 0v1550h952v-239h-713v-365h631v-239h-631v-467h713v-240h-952zM350 1696q0 39 31 64.5t74 25.5t74.5 -25.5t31.5 -66.5q0 -37 -30.5 -62.5t-73.5 -25.5t-75 24.5t-32 65.5zM694 1696q0 37 32 63.5t75 26.5q41 0 73.5 -25.5t32.5 -66.5q0 -37 -31.5 -62.5 t-74.5 -25.5q-41 0 -74 24.5t-33 65.5z" />
<glyph unicode="&#xcc;" horiz-adv-x="514" d="M-53 1800h221l166 -225h-168zM111 0v1550h237v-1550h-237z" />
<glyph unicode="&#xcd;" horiz-adv-x="514" d="M111 0v1550h237v-1550h-237zM141 1575l166 225h221l-219 -225h-168z" />
<glyph unicode="&#xce;" horiz-adv-x="514" d="M-43 1585l147 209h263l147 -209h-170l-111 133l-106 -133h-170zM111 0v1550h237v-1550h-237z" />
<glyph unicode="&#xcf;" horiz-adv-x="514" d="M-35 1696q0 39 31 64.5t74 25.5q41 0 73.5 -25.5t32.5 -66.5q0 -37 -30.5 -62.5t-73.5 -25.5t-75 24.5t-32 65.5zM111 0v1550h237v-1550h-237zM309 1696q0 37 32 63.5t75 26.5q41 0 72.5 -25.5t31.5 -66.5q0 -37 -30.5 -62.5t-73.5 -25.5t-75 24.5t-32 65.5z" />
<glyph unicode="&#xd1;" horiz-adv-x="1562" d="M113 0v1550h127l823 -1069v1069h240v-1550h-129l-824 1069v-1069h-237zM342 1597q6 203 182 203q68 0 170.5 -54t143.5 -54q72 0 92 108h31q0 -84 -43 -141q-49 -63 -142 -64q-68 0 -172 55.5t-141 55.5q-45 0 -66 -37q-12 -18 -24 -72h-31z" />
<glyph unicode="&#xd2;" horiz-adv-x="1484" d="M84 240v1071q0 94 67.5 166.5t170.5 72.5h714q100 0 169 -70.5t69 -168.5v-1071q0 -240 -238 -240h-714q-190 0 -230 160q-8 37 -8 80zM322 240h714v1071h-714v-1071zM373 1800h221l166 -225h-168z" />
<glyph unicode="&#xd3;" horiz-adv-x="1484" d="M84 240v1071q0 94 67.5 166.5t170.5 72.5h714q100 0 169 -70.5t69 -168.5v-1071q0 -240 -238 -240h-714q-190 0 -230 160q-8 37 -8 80zM322 240h714v1071h-714v-1071zM567 1575l166 225h221l-221 -225h-166z" />
<glyph unicode="&#xd4;" horiz-adv-x="1484" d="M84 240v1071q0 94 67.5 166.5t170.5 72.5h714q100 0 169 -70.5t69 -168.5v-1071q0 -240 -238 -240h-714q-190 0 -230 160q-8 37 -8 80zM322 240h714v1071h-714v-1071zM403 1585l148 209h262l148 -209h-170l-111 133l-107 -133h-170z" />
<glyph unicode="&#xd5;" horiz-adv-x="1484" d="M84 240v1071q0 94 67.5 166.5t170.5 72.5h714q100 0 169 -70.5t69 -168.5v-1071q0 -240 -238 -240h-714q-190 0 -230 160q-8 37 -8 80zM322 240h714v1071h-714v-1071zM383 1597q4 203 182 203q66 0 169.5 -54t144.5 -54q72 0 92 108h30q0 -84 -43 -141q-51 -63 -141 -64 q-68 0 -172 55.5t-141 55.5q-45 0 -66 -37q-12 -18 -24 -72h-31z" />
<glyph unicode="&#xd6;" horiz-adv-x="1484" d="M84 240v1071q0 94 67.5 166.5t170.5 72.5h714q100 0 169 -70.5t69 -168.5v-1071q0 -240 -238 -240h-714q-190 0 -230 160q-8 37 -8 80zM322 240h714v1071h-714v-1071zM410 1696q0 39 31.5 64.5t74.5 25.5q41 0 74 -25.5t33 -66.5q0 -37 -32 -62.5t-75 -25.5 q-41 0 -73.5 24.5t-32.5 65.5zM754 1696q0 37 31.5 63.5t74.5 26.5t75 -25.5t32 -66.5q0 -37 -31 -62.5t-76 -25.5q-41 0 -73.5 24.5t-32.5 65.5z" />
<glyph unicode="&#xd8;" horiz-adv-x="1484" d="M111 240v1071q0 94 66.5 166.5t170.5 72.5h713q100 0 169.5 -70.5t69.5 -168.5v-1071q0 -240 -239 -240h-713q-193 0 -229 160q-8 37 -8 80zM287 184l688 1207h164l-688 -1207h-164zM348 240h713v1071h-713v-1071z" />
<glyph unicode="&#xd9;" horiz-adv-x="1560" d="M111 240v1310h239v-1310h713v1310h237v-1310q0 -100 -63 -170t-174 -70h-713q-106 0 -172.5 68.5t-66.5 171.5zM455 1800h219l166 -225h-166z" />
<glyph unicode="&#xda;" horiz-adv-x="1560" d="M111 240v1310h239v-1310h713v1310h237v-1310q0 -100 -63 -170t-174 -70h-713q-106 0 -172.5 68.5t-66.5 171.5zM567 1575l166 225h221l-221 -225h-166z" />
<glyph unicode="&#xdb;" horiz-adv-x="1560" d="M111 240v1310h239v-1310h713v1310h237v-1310q0 -100 -63 -170t-174 -70h-713q-106 0 -172.5 68.5t-66.5 171.5zM424 1585l147 209h263l147 -209h-170l-111 133l-106 -133h-170z" />
<glyph unicode="&#xdc;" horiz-adv-x="1560" d="M111 240v1310h239v-1310h713v1310h237v-1310q0 -100 -63 -170t-174 -70h-713q-106 0 -172.5 68.5t-66.5 171.5zM430 1696q0 39 32 64.5t75 25.5q41 0 73.5 -25.5t32.5 -66.5q0 -37 -31.5 -62.5t-74.5 -25.5q-41 0 -74 24.5t-33 65.5zM774 1696q0 37 32 63.5t75 26.5 t74.5 -25.5t31.5 -66.5q0 -37 -30.5 -62.5t-75.5 -25.5q-41 0 -74 24.5t-33 65.5z" />
<glyph unicode="&#xdd;" horiz-adv-x="1222" />
<glyph unicode="&#xde;" />
<glyph unicode="&#xdf;" horiz-adv-x="1300" d="M92 0v1311q0 92 67.5 165.5t170.5 73.5h714q84 0 148.5 -52t83.5 -132q6 -29 6 -358q0 -127 -115 -191q115 -66 115 -172v-405q0 -240 -238 -240h-485v240h485v467h-485v239h485v365h-714v-1311h-238z" />
<glyph unicode="&#xe0;" horiz-adv-x="1556" d="M109 240v241q0 100 64.5 170t172.5 70h715v242h-952v239h952q104 0 170.5 -68.5t66.5 -170.5v-963h-952q-102 0 -169.5 68.5t-67.5 171.5zM346 240h715v241h-715v-241zM414 1534h221l166 -225h-168z" />
<glyph unicode="&#xe1;" horiz-adv-x="1556" d="M109 240v241q0 100 64.5 170t172.5 70h715v242h-952v239h952q104 0 170.5 -68.5t66.5 -170.5v-963h-952q-102 0 -169.5 68.5t-67.5 171.5zM346 240h715v241h-715v-241zM567 1309l166 225h221l-219 -225h-168z" />
<glyph unicode="&#xe2;" horiz-adv-x="1556" d="M109 240v241q0 100 64.5 170t172.5 70h715v242h-952v239h952q104 0 170.5 -68.5t66.5 -170.5v-963h-952q-102 0 -169.5 68.5t-67.5 171.5zM346 240h715v241h-715v-241zM403 1319l148 209h262l148 -209h-170l-111 133l-107 -133h-170z" />
<glyph unicode="&#xe3;" horiz-adv-x="1556" d="M109 240v241q0 100 64.5 170t172.5 70h715v242h-952v239h952q104 0 170.5 -68.5t66.5 -170.5v-963h-952q-102 0 -169.5 68.5t-67.5 171.5zM346 240h715v241h-715v-241zM362 1331q6 203 183 203q68 0 170 -54.5t143 -54.5q72 0 92 109h31q0 -84 -43 -141q-51 -63 -141 -64 q-68 0 -172.5 55.5t-141.5 55.5q-45 0 -65 -37q-12 -18 -25 -72h-31z" />
<glyph unicode="&#xe4;" horiz-adv-x="1556" d="M109 240v241q0 100 64.5 170t172.5 70h715v242h-952v239h952q104 0 170.5 -68.5t66.5 -170.5v-963h-952q-102 0 -169.5 68.5t-67.5 171.5zM346 240h715v241h-715v-241zM430 1430q0 39 32 64.5t75 25.5q41 0 73.5 -26t32.5 -67q0 -37 -31.5 -62.5t-74.5 -25.5 q-41 0 -74 25t-33 66zM774 1430q0 37 32 63.5t75 26.5t74.5 -26t31.5 -67q0 -37 -30.5 -62.5t-75.5 -25.5q-41 0 -74 25t-33 66z" />
<glyph unicode="&#xe5;" horiz-adv-x="1556" d="M109 240v241q0 100 64.5 170t172.5 70h715v242h-952v239h952q104 0 170.5 -68.5t66.5 -170.5v-963h-952q-102 0 -169.5 68.5t-67.5 171.5zM346 240h715v241h-715v-241zM520 1421q0 72 54.5 124t134.5 52q78 0 134 -51t56 -125t-55.5 -126t-134.5 -52q-76 0 -132.5 51.5 t-56.5 126.5zM588 1421q0 -49 35.5 -80.5t85.5 -31.5q51 0 85.5 33.5t34.5 78.5q0 47 -35.5 80t-84.5 33q-51 0 -86 -34t-35 -79z" />
<glyph unicode="&#xe6;" horiz-adv-x="2353" d="M109 240v241q0 100 64.5 170t172.5 70h715v242h-952v239h952q104 0 170.5 -68.5t66.5 -170.5v-963h-952q-102 0 -169.5 68.5t-67.5 171.5zM346 240h715v241h-715v-241zM1061 240v723q0 104 62.5 171.5t176.5 67.5h713q104 0 171 -68.5t67 -170.5v-242q0 -100 -62 -168 q-68 -72 -176 -72h-713v-241h891v-240h-891q-104 0 -171.5 68.5t-67.5 171.5zM1300 721h713v242h-713v-242z" />
<glyph unicode="&#xe7;" horiz-adv-x="1284" d="M96 240v723q0 94 66.5 166.5t171.5 72.5h911v-239h-911v-723h911v-240h-911q-193 0 -230 160q-8 37 -8 80zM537 -299q33 -4 49 -4q47 0 83 32.5t36 75.5q0 76 -84 76q-10 0 -21 -2l111 178h59l-51 -80q125 -28 125 -147q0 -76 -63.5 -127t-149.5 -51q-39 0 -94 6v43z" />
<glyph unicode="&#xe8;" horiz-adv-x="1556" d="M109 240v723q0 104 61 171.5t176 67.5h715q104 0 170.5 -68.5t66.5 -170.5v-242q0 -100 -61 -168q-68 -72 -176 -72h-715v-241h891v-240h-891q-104 0 -170.5 68.5t-66.5 171.5zM346 721h715v242h-715v-242zM373 1534h221l166 -225h-168z" />
<glyph unicode="&#xe9;" horiz-adv-x="1556" d="M109 240v723q0 104 61 171.5t176 67.5h715q104 0 170.5 -68.5t66.5 -170.5v-242q0 -100 -61 -168q-68 -72 -176 -72h-715v-241h891v-240h-891q-104 0 -170.5 68.5t-66.5 171.5zM346 721h715v242h-715v-242zM608 1309l166 225h221l-221 -225h-166z" />
<glyph unicode="&#xea;" horiz-adv-x="1556" d="M109 240v723q0 104 61 171.5t176 67.5h715q104 0 170.5 -68.5t66.5 -170.5v-242q0 -100 -61 -168q-68 -72 -176 -72h-715v-241h891v-240h-891q-104 0 -170.5 68.5t-66.5 171.5zM346 721h715v242h-715v-242zM403 1319l148 209h262l148 -209h-170l-111 133l-107 -133h-170z " />
<glyph unicode="&#xeb;" horiz-adv-x="1556" d="M109 240v723q0 104 61 171.5t176 67.5h715q104 0 170.5 -68.5t66.5 -170.5v-242q0 -100 -61 -168q-68 -72 -176 -72h-715v-241h891v-240h-891q-104 0 -170.5 68.5t-66.5 171.5zM346 721h715v242h-715v-242zM410 1430q0 39 31.5 64.5t74.5 25.5q41 0 74 -26t33 -67 q0 -37 -31 -62.5t-76 -25.5q-41 0 -73.5 25t-32.5 66zM754 1430q0 37 31.5 63.5t76.5 26.5q41 0 73 -26t32 -67q0 -37 -31 -62.5t-74 -25.5t-75.5 25t-32.5 66z" />
<glyph unicode="&#xec;" horiz-adv-x="454" d="M-57 1534h221l166 -225h-168zM119 0v1202h237v-1202h-237z" />
<glyph unicode="&#xed;" horiz-adv-x="454" d="M119 0v1202h237v-1202h-237zM137 1309l166 225h221l-221 -225h-166z" />
<glyph unicode="&#xee;" horiz-adv-x="454" d="M-47 1319l147 209h262l148 -209h-170l-111 133l-106 -133h-170zM119 0v1202h237v-1202h-237z" />
<glyph unicode="&#xef;" horiz-adv-x="454" d="M-41 1430q0 39 32 64.5t75 25.5q41 0 73.5 -26t32.5 -67q0 -37 -30.5 -62.5t-75.5 -25.5q-41 0 -74 25t-33 66zM119 0v1202h237v-1202h-237zM303 1430q0 37 32 63.5t77 26.5q41 0 72.5 -26t31.5 -67q0 -37 -30.5 -62.5t-73.5 -25.5t-76 25t-33 66z" />
<glyph unicode="&#xf0;" />
<glyph unicode="&#xf1;" horiz-adv-x="1460" d="M109 0v1202h890q193 0 230 -164q8 -35 8 -75v-963h-238v963h-653v-963h-237zM362 1331q6 203 183 203q68 0 170 -54.5t143 -54.5q72 0 92 109h31q0 -84 -43 -141q-51 -63 -141 -64q-68 0 -172.5 55.5t-141.5 55.5q-45 0 -65 -37q-12 -18 -25 -72h-31z" />
<glyph unicode="&#xf2;" horiz-adv-x="1556" d="M84 240v723q0 94 67.5 166.5t170.5 72.5h714q100 0 169 -70.5t69 -168.5v-723q0 -240 -238 -240h-714q-190 0 -230 160q-8 37 -8 80zM322 240h714v723h-714v-723zM414 1534h221l166 -225h-168z" />
<glyph unicode="&#xf3;" horiz-adv-x="1556" d="M84 240v723q0 94 67.5 166.5t170.5 72.5h714q100 0 169 -70.5t69 -168.5v-723q0 -240 -238 -240h-714q-190 0 -230 160q-8 37 -8 80zM322 240h714v723h-714v-723zM567 1309l166 225h221l-219 -225h-168z" />
<glyph unicode="&#xf4;" horiz-adv-x="1556" d="M84 240v723q0 94 67.5 166.5t170.5 72.5h714q100 0 169 -70.5t69 -168.5v-723q0 -240 -238 -240h-714q-190 0 -230 160q-8 37 -8 80zM322 240h714v723h-714v-723zM403 1319l148 209h262l148 -209h-170l-111 133l-107 -133h-170z" />
<glyph unicode="&#xf5;" horiz-adv-x="1556" d="M84 240v723q0 94 67.5 166.5t170.5 72.5h714q100 0 169 -70.5t69 -168.5v-723q0 -240 -238 -240h-714q-190 0 -230 160q-8 37 -8 80zM322 240h714v723h-714v-723zM362 1331q6 203 183 203q68 0 170 -54.5t143 -54.5q72 0 92 109h31q0 -84 -43 -141q-51 -63 -141 -64 q-68 0 -172.5 55.5t-141.5 55.5q-45 0 -65 -37q-12 -18 -25 -72h-31z" />
<glyph unicode="&#xf6;" horiz-adv-x="1556" d="M84 240v723q0 94 67.5 166.5t170.5 72.5h714q100 0 169 -70.5t69 -168.5v-723q0 -240 -238 -240h-714q-190 0 -230 160q-8 37 -8 80zM322 240h714v723h-714v-723zM430 1430q0 39 32 64.5t75 25.5q41 0 73.5 -26t32.5 -67q0 -37 -31.5 -62.5t-74.5 -25.5q-41 0 -74 25 t-33 66zM774 1430q0 37 32 63.5t75 26.5t74.5 -26t31.5 -67q0 -37 -30.5 -62.5t-75.5 -25.5q-41 0 -74 25t-33 66z" />
<glyph unicode="&#xf8;" horiz-adv-x="1349" d="M84 240v723q0 94 67.5 166.5t170.5 72.5h714q100 0 169 -70.5t69 -168.5v-723q0 -240 -238 -240h-714q-190 0 -230 160q-8 37 -8 80zM236 231l784 828l119 -94l-822 -852zM322 240h714v723h-714v-723z" />
<glyph unicode="&#xf9;" horiz-adv-x="1556" d="M111 240v962h239v-962h713v962h237v-962q0 -100 -63 -170t-174 -70h-713q-106 0 -172.5 68.5t-66.5 171.5zM414 1534h221l166 -225h-168z" />
<glyph unicode="&#xfa;" horiz-adv-x="1556" d="M111 240v962h239v-962h713v962h237v-962q0 -100 -63 -170t-174 -70h-713q-106 0 -172.5 68.5t-66.5 171.5zM567 1309l166 225h221l-219 -225h-168z" />
<glyph unicode="&#xfb;" horiz-adv-x="1556" d="M111 240v962h239v-962h713v962h237v-962q0 -100 -63 -170t-174 -70h-713q-106 0 -172.5 68.5t-66.5 171.5zM403 1319l148 209h262l148 -209h-170l-111 133l-107 -133h-170z" />
<glyph unicode="&#xfc;" horiz-adv-x="1556" d="M111 240v962h239v-962h713v962h237v-962q0 -100 -63 -170t-174 -70h-713q-106 0 -172.5 68.5t-66.5 171.5zM430 1430q0 39 32 64.5t75 25.5q41 0 73.5 -26t32.5 -67q0 -37 -31.5 -62.5t-74.5 -25.5q-41 0 -74 25t-33 66zM774 1430q0 37 32 63.5t75 26.5t74.5 -26 t31.5 -67q0 -37 -30.5 -62.5t-75.5 -25.5q-41 0 -74 25t-33 66z" />
<glyph unicode="&#xfe;" />
<glyph unicode="&#xff;" horiz-adv-x="1427" />
<glyph unicode="&#x152;" horiz-adv-x="2304" d="M76 240v1071q0 94 66.5 166.5t170.5 72.5h713q63 0 117 -30q55 31 129 30h715q104 0 170.5 -68.5t66.5 -170.5v-242q0 -100 -61 -168q-68 -72 -176 -72h-715v-589h891v-240h-891q-61 0 -115 27q-53 -27 -131 -27h-713q-193 0 -229 160q-8 37 -8 80zM313 240h713v1071 h-713v-1071zM1272 1069h715v242h-715v-242z" />
<glyph unicode="&#x153;" horiz-adv-x="2304" d="M76 240v723q0 94 66.5 166.5t170.5 72.5h713q63 0 119 -31q53 31 127 31h715q104 0 170.5 -68.5t66.5 -170.5v-242q0 -100 -61 -168q-68 -72 -176 -72h-715v-241h893v-240h-893q-61 0 -115 27q-53 -27 -131 -27h-713q-193 0 -229 160q-8 37 -8 80zM313 240h713v723h-713 v-723zM1272 721h715v242h-715v-242z" />
<glyph unicode="&#x178;" horiz-adv-x="1480" />
<glyph unicode="&#x2c6;" horiz-adv-x="1193" d="M383 1319l147 209h263l147 -209h-170l-111 133l-106 -133h-170z" />
<glyph unicode="&#x2dc;" horiz-adv-x="1128" d="M342 1331q6 203 182 203q68 0 170.5 -54.5t145.5 -54.5q70 0 90 109h31q0 -84 -43 -141q-49 -63 -142 -64q-66 0 -171 55.5t-142 55.5q-45 0 -66 -37q-12 -18 -24 -72h-31z" />
<glyph unicode="&#x2000;" horiz-adv-x="932" />
<glyph unicode="&#x2001;" horiz-adv-x="1864" />
<glyph unicode="&#x2002;" horiz-adv-x="932" />
<glyph unicode="&#x2003;" horiz-adv-x="1864" />
<glyph unicode="&#x2004;" horiz-adv-x="621" />
<glyph unicode="&#x2005;" horiz-adv-x="466" />
<glyph unicode="&#x2006;" horiz-adv-x="310" />
<glyph unicode="&#x2007;" horiz-adv-x="310" />
<glyph unicode="&#x2008;" horiz-adv-x="233" />
<glyph unicode="&#x2009;" horiz-adv-x="372" />
<glyph unicode="&#x200a;" horiz-adv-x="103" />
<glyph unicode="&#x2010;" horiz-adv-x="827" d="M63 707v239h715v-239h-715z" />
<glyph unicode="&#x2011;" horiz-adv-x="827" d="M63 707v239h715v-239h-715z" />
<glyph unicode="&#x2012;" horiz-adv-x="827" d="M63 707v239h715v-239h-715z" />
<glyph unicode="&#x2013;" horiz-adv-x="774" d="M63 705v237h439v-237h-439z" />
<glyph unicode="&#x2014;" horiz-adv-x="1200" d="M63 707v239h715v-239h-715z" />
<glyph unicode="&#x2018;" horiz-adv-x="407" d="M31 1446q0 -115 82 -193q59 -55 192 -110l37 47q-90 47 -104 113h16q80 0 104 104q6 20 7 41q0 68 -48.5 118t-123.5 50q-127 0 -156 -119q-6 -22 -6 -51z" />
<glyph unicode="&#x2019;" horiz-adv-x="419" d="M37 1448q0 68 48 118t124 50q127 0 156 -119q4 -22 4 -51q0 -115 -80 -193q-59 -55 -193 -110l-37 47q90 47 105 113h-17q-80 0 -106 104q-4 20 -4 41z" />
<glyph unicode="&#x201a;" />
<glyph unicode="&#x201c;" horiz-adv-x="761" d="M31 1446q0 -115 82 -193q59 -55 192 -110l37 47q-90 47 -104 113h16q80 0 104 104q6 20 7 41q0 68 -48.5 118t-123.5 50q-127 0 -156 -119q-6 -22 -6 -51zM397 1446q0 -115 80 -193q59 -55 193 -110l37 47q-88 47 -105 113h16q82 0 107 104q4 20 4 41q0 68 -48 118 t-124 50q-127 0 -156 -119q-4 -22 -4 -51z" />
<glyph unicode="&#x201d;" horiz-adv-x="772" d="M37 1448q0 68 48 118t124 50q127 0 156 -119q4 -22 4 -51q0 -115 -80 -193q-59 -55 -193 -110l-37 47q90 47 105 113h-17q-80 0 -106 104q-4 20 -4 41zM401 1448q0 68 49.5 118t122.5 50q127 0 156 -119q6 -22 6 -51q0 -115 -82 -193q-59 -55 -192 -110l-37 47 q90 47 104 113h-16q-80 0 -104 104q-6 20 -7 41z" />
<glyph unicode="&#x201e;" />
<glyph unicode="&#x2022;" horiz-adv-x="970" d="M27 250v940h899v-940h-899z" />
<glyph unicode="&#x2026;" horiz-adv-x="1062" d="M55 119q0 68 46 117t118 49q68 0 116 -48t48 -116q0 -66 -47 -116t-117 -50q-68 0 -116 49t-48 115zM391 119q0 68 47 117t117 49q68 0 116 -48t48 -116q0 -66 -46 -116t-118 -50q-68 0 -116 49t-48 115zM729 119q0 68 46 117t116 49q68 0 116 -48t48 -116 q0 -66 -46 -116t-118 -50q-68 0 -115 49t-47 115z" />
<glyph unicode="&#x202f;" horiz-adv-x="372" />
<glyph unicode="&#x205f;" horiz-adv-x="466" />
<glyph unicode="&#xe000;" horiz-adv-x="1198" d="M0 0v1198h1198v-1198h-1198z" />
</font>
</defs>
</svg>
